<mxfile host="app.diagrams.net" modified="2021-12-05T18:17:44.691Z" agent="5.0 (Windows NT 10.0; Win64; x64) AppleWebKit/537.36 (KHTML, like Gecko) Chrome/96.0.4664.45 Safari/537.36" etag="O0poZqDH1u5et1AvNLMx" version="15.8.8" type="github">
  <diagram id="C5RBs43oDa-KdzZeNtuy" name="Page-1">
    <mxGraphModel dx="366" dy="1675" grid="1" gridSize="10" guides="1" tooltips="1" connect="1" arrows="1" fold="1" page="1" pageScale="1" pageWidth="827" pageHeight="1169" math="0" shadow="0">
      <root>
        <mxCell id="WIyWlLk6GJQsqaUBKTNV-0" />
        <mxCell id="WIyWlLk6GJQsqaUBKTNV-1" parent="WIyWlLk6GJQsqaUBKTNV-0" />
        <mxCell id="_kxqz9F-Hs71tGvmmAGX-8" style="edgeStyle=orthogonalEdgeStyle;rounded=0;orthogonalLoop=1;jettySize=auto;html=1;exitX=0.5;exitY=1;exitDx=0;exitDy=0;entryX=0.5;entryY=0;entryDx=0;entryDy=0;" edge="1" parent="WIyWlLk6GJQsqaUBKTNV-1" source="_kxqz9F-Hs71tGvmmAGX-0" target="_kxqz9F-Hs71tGvmmAGX-1">
          <mxGeometry relative="1" as="geometry" />
        </mxCell>
        <mxCell id="_kxqz9F-Hs71tGvmmAGX-0" value="Start" style="ellipse;whiteSpace=wrap;html=1;aspect=fixed;fillColor=#fff2cc;strokeColor=#d6b656;" vertex="1" parent="WIyWlLk6GJQsqaUBKTNV-1">
          <mxGeometry x="435" y="-180" width="50" height="50" as="geometry" />
        </mxCell>
        <mxCell id="_kxqz9F-Hs71tGvmmAGX-9" style="edgeStyle=orthogonalEdgeStyle;rounded=0;orthogonalLoop=1;jettySize=auto;html=1;exitX=0.5;exitY=1;exitDx=0;exitDy=0;entryX=0.5;entryY=0;entryDx=0;entryDy=0;" edge="1" parent="WIyWlLk6GJQsqaUBKTNV-1" source="_kxqz9F-Hs71tGvmmAGX-1" target="_kxqz9F-Hs71tGvmmAGX-2">
          <mxGeometry relative="1" as="geometry" />
        </mxCell>
        <mxCell id="_kxqz9F-Hs71tGvmmAGX-1" value="Home page" style="rounded=0;whiteSpace=wrap;html=1;" vertex="1" parent="WIyWlLk6GJQsqaUBKTNV-1">
          <mxGeometry x="380" y="-80" width="160" height="50" as="geometry" />
        </mxCell>
        <mxCell id="_kxqz9F-Hs71tGvmmAGX-10" style="edgeStyle=orthogonalEdgeStyle;rounded=0;orthogonalLoop=1;jettySize=auto;html=1;exitX=1;exitY=0.5;exitDx=0;exitDy=0;entryX=0;entryY=0.5;entryDx=0;entryDy=0;" edge="1" parent="WIyWlLk6GJQsqaUBKTNV-1" source="_kxqz9F-Hs71tGvmmAGX-2" target="_kxqz9F-Hs71tGvmmAGX-5">
          <mxGeometry relative="1" as="geometry" />
        </mxCell>
        <mxCell id="_kxqz9F-Hs71tGvmmAGX-11" style="edgeStyle=orthogonalEdgeStyle;rounded=0;orthogonalLoop=1;jettySize=auto;html=1;exitX=0.5;exitY=1;exitDx=0;exitDy=0;" edge="1" parent="WIyWlLk6GJQsqaUBKTNV-1" source="_kxqz9F-Hs71tGvmmAGX-2" target="_kxqz9F-Hs71tGvmmAGX-4">
          <mxGeometry relative="1" as="geometry" />
        </mxCell>
        <mxCell id="_kxqz9F-Hs71tGvmmAGX-2" value="Do you want to check &lt;br&gt;about us page?" style="rhombus;whiteSpace=wrap;html=1;" vertex="1" parent="WIyWlLk6GJQsqaUBKTNV-1">
          <mxGeometry x="357.5" y="10" width="205" height="90" as="geometry" />
        </mxCell>
        <mxCell id="_kxqz9F-Hs71tGvmmAGX-15" style="edgeStyle=orthogonalEdgeStyle;rounded=0;orthogonalLoop=1;jettySize=auto;html=1;exitX=0.5;exitY=1;exitDx=0;exitDy=0;entryX=0.5;entryY=0;entryDx=0;entryDy=0;" edge="1" parent="WIyWlLk6GJQsqaUBKTNV-1" source="_kxqz9F-Hs71tGvmmAGX-4" target="_kxqz9F-Hs71tGvmmAGX-14">
          <mxGeometry relative="1" as="geometry" />
        </mxCell>
        <mxCell id="_kxqz9F-Hs71tGvmmAGX-4" value="No&lt;br&gt;" style="ellipse;whiteSpace=wrap;html=1;aspect=fixed;" vertex="1" parent="WIyWlLk6GJQsqaUBKTNV-1">
          <mxGeometry x="430" y="150" width="60" height="60" as="geometry" />
        </mxCell>
        <mxCell id="_kxqz9F-Hs71tGvmmAGX-12" style="edgeStyle=orthogonalEdgeStyle;rounded=0;orthogonalLoop=1;jettySize=auto;html=1;exitX=0.5;exitY=1;exitDx=0;exitDy=0;" edge="1" parent="WIyWlLk6GJQsqaUBKTNV-1" source="_kxqz9F-Hs71tGvmmAGX-5" target="_kxqz9F-Hs71tGvmmAGX-6">
          <mxGeometry relative="1" as="geometry" />
        </mxCell>
        <mxCell id="_kxqz9F-Hs71tGvmmAGX-5" value="Yes" style="ellipse;whiteSpace=wrap;html=1;aspect=fixed;" vertex="1" parent="WIyWlLk6GJQsqaUBKTNV-1">
          <mxGeometry x="630" y="25" width="60" height="60" as="geometry" />
        </mxCell>
        <mxCell id="_kxqz9F-Hs71tGvmmAGX-13" style="edgeStyle=orthogonalEdgeStyle;rounded=0;orthogonalLoop=1;jettySize=auto;html=1;exitX=0.5;exitY=1;exitDx=0;exitDy=0;entryX=0.5;entryY=0;entryDx=0;entryDy=0;" edge="1" parent="WIyWlLk6GJQsqaUBKTNV-1" source="_kxqz9F-Hs71tGvmmAGX-6" target="_kxqz9F-Hs71tGvmmAGX-7">
          <mxGeometry relative="1" as="geometry" />
        </mxCell>
        <mxCell id="_kxqz9F-Hs71tGvmmAGX-6" value="About Us&amp;nbsp;&lt;br&gt;page" style="rounded=0;whiteSpace=wrap;html=1;" vertex="1" parent="WIyWlLk6GJQsqaUBKTNV-1">
          <mxGeometry x="600" y="150" width="120" height="60" as="geometry" />
        </mxCell>
        <mxCell id="_kxqz9F-Hs71tGvmmAGX-16" style="edgeStyle=orthogonalEdgeStyle;rounded=0;orthogonalLoop=1;jettySize=auto;html=1;exitX=0;exitY=0.5;exitDx=0;exitDy=0;entryX=0.972;entryY=0.533;entryDx=0;entryDy=0;entryPerimeter=0;" edge="1" parent="WIyWlLk6GJQsqaUBKTNV-1" source="_kxqz9F-Hs71tGvmmAGX-7" target="_kxqz9F-Hs71tGvmmAGX-14">
          <mxGeometry relative="1" as="geometry" />
        </mxCell>
        <mxCell id="_kxqz9F-Hs71tGvmmAGX-7" value="Read About Us&amp;nbsp;&lt;br&gt;Page" style="rounded=1;whiteSpace=wrap;html=1;" vertex="1" parent="WIyWlLk6GJQsqaUBKTNV-1">
          <mxGeometry x="600" y="280" width="120" height="60" as="geometry" />
        </mxCell>
        <mxCell id="_kxqz9F-Hs71tGvmmAGX-20" style="edgeStyle=orthogonalEdgeStyle;rounded=0;orthogonalLoop=1;jettySize=auto;html=1;exitX=0;exitY=0.5;exitDx=0;exitDy=0;entryX=1;entryY=0.5;entryDx=0;entryDy=0;" edge="1" parent="WIyWlLk6GJQsqaUBKTNV-1" source="_kxqz9F-Hs71tGvmmAGX-14" target="_kxqz9F-Hs71tGvmmAGX-18">
          <mxGeometry relative="1" as="geometry" />
        </mxCell>
        <mxCell id="_kxqz9F-Hs71tGvmmAGX-21" style="edgeStyle=orthogonalEdgeStyle;rounded=0;orthogonalLoop=1;jettySize=auto;html=1;exitX=0.5;exitY=1;exitDx=0;exitDy=0;" edge="1" parent="WIyWlLk6GJQsqaUBKTNV-1" source="_kxqz9F-Hs71tGvmmAGX-14" target="_kxqz9F-Hs71tGvmmAGX-19">
          <mxGeometry relative="1" as="geometry" />
        </mxCell>
        <mxCell id="_kxqz9F-Hs71tGvmmAGX-14" value="Do you want to order&lt;br&gt;a ticket?" style="rhombus;whiteSpace=wrap;html=1;" vertex="1" parent="WIyWlLk6GJQsqaUBKTNV-1">
          <mxGeometry x="357.5" y="260" width="205" height="90" as="geometry" />
        </mxCell>
        <mxCell id="_kxqz9F-Hs71tGvmmAGX-57" style="edgeStyle=orthogonalEdgeStyle;rounded=0;orthogonalLoop=1;jettySize=auto;html=1;exitX=0.5;exitY=1;exitDx=0;exitDy=0;entryX=0;entryY=0.5;entryDx=0;entryDy=0;" edge="1" parent="WIyWlLk6GJQsqaUBKTNV-1" source="_kxqz9F-Hs71tGvmmAGX-18" target="_kxqz9F-Hs71tGvmmAGX-53">
          <mxGeometry relative="1" as="geometry" />
        </mxCell>
        <mxCell id="_kxqz9F-Hs71tGvmmAGX-18" value="No&lt;br&gt;" style="ellipse;whiteSpace=wrap;html=1;aspect=fixed;" vertex="1" parent="WIyWlLk6GJQsqaUBKTNV-1">
          <mxGeometry x="190" y="275" width="60" height="60" as="geometry" />
        </mxCell>
        <mxCell id="_kxqz9F-Hs71tGvmmAGX-22" style="edgeStyle=orthogonalEdgeStyle;rounded=0;orthogonalLoop=1;jettySize=auto;html=1;exitX=0.5;exitY=1;exitDx=0;exitDy=0;" edge="1" parent="WIyWlLk6GJQsqaUBKTNV-1" source="_kxqz9F-Hs71tGvmmAGX-19">
          <mxGeometry relative="1" as="geometry">
            <mxPoint x="460" y="530" as="targetPoint" />
          </mxGeometry>
        </mxCell>
        <mxCell id="_kxqz9F-Hs71tGvmmAGX-19" value="Yes" style="ellipse;whiteSpace=wrap;html=1;aspect=fixed;" vertex="1" parent="WIyWlLk6GJQsqaUBKTNV-1">
          <mxGeometry x="430" y="410" width="60" height="60" as="geometry" />
        </mxCell>
        <mxCell id="_kxqz9F-Hs71tGvmmAGX-31" style="edgeStyle=orthogonalEdgeStyle;rounded=0;orthogonalLoop=1;jettySize=auto;html=1;exitX=1;exitY=0.5;exitDx=0;exitDy=0;" edge="1" parent="WIyWlLk6GJQsqaUBKTNV-1" source="_kxqz9F-Hs71tGvmmAGX-23" target="_kxqz9F-Hs71tGvmmAGX-24">
          <mxGeometry relative="1" as="geometry" />
        </mxCell>
        <mxCell id="_kxqz9F-Hs71tGvmmAGX-23" value="Events Page" style="rounded=0;whiteSpace=wrap;html=1;" vertex="1" parent="WIyWlLk6GJQsqaUBKTNV-1">
          <mxGeometry x="400" y="530" width="120" height="60" as="geometry" />
        </mxCell>
        <mxCell id="_kxqz9F-Hs71tGvmmAGX-28" style="edgeStyle=orthogonalEdgeStyle;rounded=0;orthogonalLoop=1;jettySize=auto;html=1;exitX=0.5;exitY=1;exitDx=0;exitDy=0;entryX=0.5;entryY=0;entryDx=0;entryDy=0;" edge="1" parent="WIyWlLk6GJQsqaUBKTNV-1" source="_kxqz9F-Hs71tGvmmAGX-24" target="_kxqz9F-Hs71tGvmmAGX-26">
          <mxGeometry relative="1" as="geometry" />
        </mxCell>
        <mxCell id="_kxqz9F-Hs71tGvmmAGX-24" value="Looking for&amp;nbsp;&lt;br&gt;correct events date" style="rounded=1;whiteSpace=wrap;html=1;" vertex="1" parent="WIyWlLk6GJQsqaUBKTNV-1">
          <mxGeometry x="600" y="530" width="120" height="60" as="geometry" />
        </mxCell>
        <mxCell id="_kxqz9F-Hs71tGvmmAGX-30" style="edgeStyle=orthogonalEdgeStyle;rounded=0;orthogonalLoop=1;jettySize=auto;html=1;exitX=0.5;exitY=1;exitDx=0;exitDy=0;" edge="1" parent="WIyWlLk6GJQsqaUBKTNV-1" source="_kxqz9F-Hs71tGvmmAGX-26" target="_kxqz9F-Hs71tGvmmAGX-29">
          <mxGeometry relative="1" as="geometry" />
        </mxCell>
        <mxCell id="_kxqz9F-Hs71tGvmmAGX-26" value="Pick the events date" style="rounded=1;whiteSpace=wrap;html=1;" vertex="1" parent="WIyWlLk6GJQsqaUBKTNV-1">
          <mxGeometry x="600" y="650" width="120" height="60" as="geometry" />
        </mxCell>
        <mxCell id="_kxqz9F-Hs71tGvmmAGX-33" style="edgeStyle=orthogonalEdgeStyle;rounded=0;orthogonalLoop=1;jettySize=auto;html=1;exitX=0;exitY=0.5;exitDx=0;exitDy=0;entryX=1;entryY=0.5;entryDx=0;entryDy=0;" edge="1" parent="WIyWlLk6GJQsqaUBKTNV-1" source="_kxqz9F-Hs71tGvmmAGX-29" target="_kxqz9F-Hs71tGvmmAGX-32">
          <mxGeometry relative="1" as="geometry" />
        </mxCell>
        <mxCell id="_kxqz9F-Hs71tGvmmAGX-44" style="edgeStyle=orthogonalEdgeStyle;rounded=0;orthogonalLoop=1;jettySize=auto;html=1;exitX=0.5;exitY=1;exitDx=0;exitDy=0;entryX=0.5;entryY=0;entryDx=0;entryDy=0;" edge="1" parent="WIyWlLk6GJQsqaUBKTNV-1" source="_kxqz9F-Hs71tGvmmAGX-29" target="_kxqz9F-Hs71tGvmmAGX-43">
          <mxGeometry relative="1" as="geometry" />
        </mxCell>
        <mxCell id="_kxqz9F-Hs71tGvmmAGX-29" value="Is this the correct event&lt;br&gt;date you would like to&amp;nbsp;&lt;br&gt;order?" style="rhombus;whiteSpace=wrap;html=1;" vertex="1" parent="WIyWlLk6GJQsqaUBKTNV-1">
          <mxGeometry x="557.5" y="770" width="205" height="90" as="geometry" />
        </mxCell>
        <mxCell id="_kxqz9F-Hs71tGvmmAGX-35" style="edgeStyle=orthogonalEdgeStyle;rounded=0;orthogonalLoop=1;jettySize=auto;html=1;exitX=0.5;exitY=1;exitDx=0;exitDy=0;entryX=0.5;entryY=0;entryDx=0;entryDy=0;" edge="1" parent="WIyWlLk6GJQsqaUBKTNV-1" source="_kxqz9F-Hs71tGvmmAGX-32" target="_kxqz9F-Hs71tGvmmAGX-34">
          <mxGeometry relative="1" as="geometry" />
        </mxCell>
        <mxCell id="_kxqz9F-Hs71tGvmmAGX-32" value="No" style="ellipse;whiteSpace=wrap;html=1;aspect=fixed;" vertex="1" parent="WIyWlLk6GJQsqaUBKTNV-1">
          <mxGeometry x="425" y="785" width="60" height="60" as="geometry" />
        </mxCell>
        <mxCell id="_kxqz9F-Hs71tGvmmAGX-39" style="edgeStyle=orthogonalEdgeStyle;rounded=0;orthogonalLoop=1;jettySize=auto;html=1;exitX=0;exitY=0.5;exitDx=0;exitDy=0;entryX=1;entryY=0.5;entryDx=0;entryDy=0;" edge="1" parent="WIyWlLk6GJQsqaUBKTNV-1" source="_kxqz9F-Hs71tGvmmAGX-34" target="_kxqz9F-Hs71tGvmmAGX-37">
          <mxGeometry relative="1" as="geometry" />
        </mxCell>
        <mxCell id="_kxqz9F-Hs71tGvmmAGX-41" style="edgeStyle=orthogonalEdgeStyle;rounded=0;orthogonalLoop=1;jettySize=auto;html=1;exitX=0.5;exitY=1;exitDx=0;exitDy=0;entryX=0.5;entryY=0;entryDx=0;entryDy=0;" edge="1" parent="WIyWlLk6GJQsqaUBKTNV-1" source="_kxqz9F-Hs71tGvmmAGX-34" target="_kxqz9F-Hs71tGvmmAGX-36">
          <mxGeometry relative="1" as="geometry" />
        </mxCell>
        <mxCell id="_kxqz9F-Hs71tGvmmAGX-34" value="Search again?" style="rhombus;whiteSpace=wrap;html=1;" vertex="1" parent="WIyWlLk6GJQsqaUBKTNV-1">
          <mxGeometry x="352.5" y="900" width="205" height="90" as="geometry" />
        </mxCell>
        <mxCell id="_kxqz9F-Hs71tGvmmAGX-56" style="edgeStyle=orthogonalEdgeStyle;rounded=0;orthogonalLoop=1;jettySize=auto;html=1;exitX=0.5;exitY=1;exitDx=0;exitDy=0;" edge="1" parent="WIyWlLk6GJQsqaUBKTNV-1" source="_kxqz9F-Hs71tGvmmAGX-36" target="_kxqz9F-Hs71tGvmmAGX-53">
          <mxGeometry relative="1" as="geometry" />
        </mxCell>
        <mxCell id="_kxqz9F-Hs71tGvmmAGX-36" value="No" style="ellipse;whiteSpace=wrap;html=1;aspect=fixed;" vertex="1" parent="WIyWlLk6GJQsqaUBKTNV-1">
          <mxGeometry x="425" y="1070" width="60" height="60" as="geometry" />
        </mxCell>
        <mxCell id="_kxqz9F-Hs71tGvmmAGX-38" style="edgeStyle=orthogonalEdgeStyle;rounded=0;orthogonalLoop=1;jettySize=auto;html=1;exitX=0.5;exitY=0;exitDx=0;exitDy=0;entryX=0;entryY=0.5;entryDx=0;entryDy=0;" edge="1" parent="WIyWlLk6GJQsqaUBKTNV-1" source="_kxqz9F-Hs71tGvmmAGX-37" target="_kxqz9F-Hs71tGvmmAGX-23">
          <mxGeometry relative="1" as="geometry" />
        </mxCell>
        <mxCell id="_kxqz9F-Hs71tGvmmAGX-37" value="Yes" style="ellipse;whiteSpace=wrap;html=1;aspect=fixed;" vertex="1" parent="WIyWlLk6GJQsqaUBKTNV-1">
          <mxGeometry x="240" y="915" width="60" height="60" as="geometry" />
        </mxCell>
        <mxCell id="_kxqz9F-Hs71tGvmmAGX-42" value="Yes" style="ellipse;whiteSpace=wrap;html=1;aspect=fixed;" vertex="1" parent="WIyWlLk6GJQsqaUBKTNV-1">
          <mxGeometry x="240" y="915" width="60" height="60" as="geometry" />
        </mxCell>
        <mxCell id="_kxqz9F-Hs71tGvmmAGX-46" style="edgeStyle=orthogonalEdgeStyle;rounded=0;orthogonalLoop=1;jettySize=auto;html=1;exitX=0.5;exitY=1;exitDx=0;exitDy=0;entryX=0.5;entryY=0;entryDx=0;entryDy=0;" edge="1" parent="WIyWlLk6GJQsqaUBKTNV-1" source="_kxqz9F-Hs71tGvmmAGX-43" target="_kxqz9F-Hs71tGvmmAGX-45">
          <mxGeometry relative="1" as="geometry" />
        </mxCell>
        <mxCell id="_kxqz9F-Hs71tGvmmAGX-43" value="Yes" style="ellipse;whiteSpace=wrap;html=1;aspect=fixed;" vertex="1" parent="WIyWlLk6GJQsqaUBKTNV-1">
          <mxGeometry x="630" y="925" width="60" height="60" as="geometry" />
        </mxCell>
        <mxCell id="_kxqz9F-Hs71tGvmmAGX-48" style="edgeStyle=orthogonalEdgeStyle;rounded=0;orthogonalLoop=1;jettySize=auto;html=1;exitX=0.5;exitY=1;exitDx=0;exitDy=0;entryX=0.5;entryY=0;entryDx=0;entryDy=0;" edge="1" parent="WIyWlLk6GJQsqaUBKTNV-1" source="_kxqz9F-Hs71tGvmmAGX-45" target="_kxqz9F-Hs71tGvmmAGX-47">
          <mxGeometry relative="1" as="geometry" />
        </mxCell>
        <mxCell id="_kxqz9F-Hs71tGvmmAGX-45" value="Go to Contact&amp;nbsp;&lt;br&gt;Page" style="rounded=1;whiteSpace=wrap;html=1;" vertex="1" parent="WIyWlLk6GJQsqaUBKTNV-1">
          <mxGeometry x="600" y="1050" width="120" height="60" as="geometry" />
        </mxCell>
        <mxCell id="_kxqz9F-Hs71tGvmmAGX-51" style="edgeStyle=orthogonalEdgeStyle;rounded=0;orthogonalLoop=1;jettySize=auto;html=1;exitX=0.5;exitY=1;exitDx=0;exitDy=0;entryX=0.5;entryY=0;entryDx=0;entryDy=0;" edge="1" parent="WIyWlLk6GJQsqaUBKTNV-1" source="_kxqz9F-Hs71tGvmmAGX-47" target="_kxqz9F-Hs71tGvmmAGX-50">
          <mxGeometry relative="1" as="geometry" />
        </mxCell>
        <mxCell id="_kxqz9F-Hs71tGvmmAGX-47" value="Contact Page" style="rounded=0;whiteSpace=wrap;html=1;" vertex="1" parent="WIyWlLk6GJQsqaUBKTNV-1">
          <mxGeometry x="600" y="1160" width="120" height="60" as="geometry" />
        </mxCell>
        <mxCell id="_kxqz9F-Hs71tGvmmAGX-55" style="edgeStyle=orthogonalEdgeStyle;rounded=0;orthogonalLoop=1;jettySize=auto;html=1;exitX=0.5;exitY=1;exitDx=0;exitDy=0;entryX=0.5;entryY=0;entryDx=0;entryDy=0;" edge="1" parent="WIyWlLk6GJQsqaUBKTNV-1" source="_kxqz9F-Hs71tGvmmAGX-50" target="_kxqz9F-Hs71tGvmmAGX-52">
          <mxGeometry relative="1" as="geometry" />
        </mxCell>
        <mxCell id="_kxqz9F-Hs71tGvmmAGX-50" value="Writing the contact&amp;nbsp;&lt;br&gt;form" style="rounded=1;whiteSpace=wrap;html=1;" vertex="1" parent="WIyWlLk6GJQsqaUBKTNV-1">
          <mxGeometry x="600" y="1260" width="120" height="60" as="geometry" />
        </mxCell>
        <mxCell id="_kxqz9F-Hs71tGvmmAGX-54" style="edgeStyle=orthogonalEdgeStyle;rounded=0;orthogonalLoop=1;jettySize=auto;html=1;exitX=0;exitY=0.5;exitDx=0;exitDy=0;entryX=1;entryY=0.5;entryDx=0;entryDy=0;" edge="1" parent="WIyWlLk6GJQsqaUBKTNV-1" source="_kxqz9F-Hs71tGvmmAGX-52" target="_kxqz9F-Hs71tGvmmAGX-53">
          <mxGeometry relative="1" as="geometry" />
        </mxCell>
        <mxCell id="_kxqz9F-Hs71tGvmmAGX-52" value="Getting the ticket&lt;br&gt;for the events" style="rounded=1;whiteSpace=wrap;html=1;" vertex="1" parent="WIyWlLk6GJQsqaUBKTNV-1">
          <mxGeometry x="600" y="1360" width="120" height="60" as="geometry" />
        </mxCell>
        <mxCell id="_kxqz9F-Hs71tGvmmAGX-53" value="END" style="ellipse;whiteSpace=wrap;html=1;aspect=fixed;fillColor=#fff2cc;strokeColor=#d6b656;" vertex="1" parent="WIyWlLk6GJQsqaUBKTNV-1">
          <mxGeometry x="425" y="1360" width="60" height="60" as="geometry" />
        </mxCell>
      </root>
    </mxGraphModel>
  </diagram>
</mxfile>
